<svg xmlns="http://www.w3.org/2000/svg" width="93.22" height="80.056" viewBox="0 0 93.22 80.056">
  <g id="_15year" data-name="15year" transform="translate(-906.331 -1187.326)">
    <path id="Path_285" data-name="Path 285" d="M5.8,0H5.3V-6.67H2.71q-.2,1.655-.425,3.14T1.907-1.416a4.008,4.008,0,0,1-.322.935,1.161,1.161,0,0,1-.408.449A1.158,1.158,0,0,1,.571.112,1.262,1.262,0,0,1,0-.01V-.459a1.635,1.635,0,0,0,.552.107.736.736,0,0,0,.662-.527,11.189,11.189,0,0,0,.518-2.275Q2.012-4.9,2.29-7.139H5.8Zm5.863,0h-3.9V-7.139h3.9v.459H8.26v2.7h3.213v.459H8.26V-.459h3.4ZM15.08,0h-.5V-6.67H12.258v-.469H17.4v.469H15.08ZM7.012,8.421a3.987,3.987,0,0,1-.85,2.688,2.926,2.926,0,0,1-2.344.989,2.921,2.921,0,0,1-2.339-.989,4,4,0,0,1-.85-2.7,3.934,3.934,0,0,1,.857-2.683,2.951,2.951,0,0,1,2.341-.979,2.918,2.918,0,0,1,2.339.984A3.991,3.991,0,0,1,7.012,8.421Zm-5.84,0a3.657,3.657,0,0,0,.684,2.371,2.388,2.388,0,0,0,1.963.837,2.4,2.4,0,0,0,1.97-.83A3.66,3.66,0,0,0,6.47,8.421a3.621,3.621,0,0,0-.681-2.366,2.4,2.4,0,0,0-1.96-.823,2.414,2.414,0,0,0-1.965.83A3.59,3.59,0,0,0,1.172,8.421ZM13.11,12h-.5V5.33H8.49V12h-.5V4.861H13.11ZM20.6,12h-.5V4.861h.5Zm-5.63-3.989h1.382a3.037,3.037,0,0,1,1.843.466,1.725,1.725,0,0,1,.618,1.472,1.914,1.914,0,0,1-.605,1.519A2.569,2.569,0,0,1,16.458,12H14.471V4.861h.5Zm0,3.55H16.38a2.114,2.114,0,0,0,1.443-.405,1.547,1.547,0,0,0,.447-1.206A1.348,1.348,0,0,0,17.806,8.8a2.562,2.562,0,0,0-1.523-.352H14.969ZM23.821,12h-.5V5.33H21V4.861H26.14V5.33H23.821Zm6.156-2.52h-2.9l-1,2.52h-.552L28.4,4.832h.317L31.53,12h-.562Zm-2.72-.449h2.554l-.972-2.573q-.122-.3-.293-.84a7.83,7.83,0,0,1-.288.85Z" transform="translate(968.02 1222.187)" fill="#fff"/>
    <path id="Path_286" data-name="Path 286" d="M12.806,0H8.128V-12.806l.045-2.1.076-2.3q-1.166,1.166-1.62,1.529L4.087-13.638,1.832-16.454,8.961-22.13h3.845ZM26.989-14.138a7.119,7.119,0,0,1,5.109,1.8A6.475,6.475,0,0,1,34-7.4,7.174,7.174,0,0,1,31.711-1.7q-2.286,2-6.539,2a12.808,12.808,0,0,1-5.964-1.2V-4.935A12.38,12.38,0,0,0,21.994-3.9a12.323,12.323,0,0,0,3.012.4q4.284,0,4.284-3.512,0-3.345-4.435-3.345a11.013,11.013,0,0,0-1.771.159,12.958,12.958,0,0,0-1.574.341l-1.862-1L20.48-22.13h12v3.966h-7.9l-.409,4.344.53-.106A10.419,10.419,0,0,1,26.989-14.138Z" transform="translate(922.164 1236.553)" fill="#fffffe"/>
    <path id="Path_41" data-name="Path 41" d="M941.59,968.552V947.163H862.358v79.056H941.59v-23" transform="translate(44.473 240.663)" fill="none" stroke="#ffea00" stroke-width="1"/>
  </g>
</svg>
