<svg xmlns="http://www.w3.org/2000/svg" width="2011.998" height="1340" viewBox="0 0 2011.998 1340">
  <g id="bg-logodev-page" transform="translate(-88.678 -72.575)">
    <path id="Path_42" data-name="Path 42" d="M667.8,926.866c0,97.514-78.96,176.564-176.359,176.564s-176.356-79.05-176.356-176.564S394.043,750.3,491.442,750.3,667.8,829.354,667.8,926.866Zm0-64.116c0,97.512-78.96,176.564-176.359,176.564S315.086,960.261,315.086,862.75s78.957-176.567,176.356-176.567S667.8,765.235,667.8,862.75ZM857.409,755.625c0,97.512-78.96,176.564-176.359,176.564S504.694,853.137,504.694,755.625s78.96-176.564,176.356-176.564S857.409,658.111,857.409,755.625Zm159.63,69.716c0,97.514-78.96,176.567-176.356,176.567S664.324,922.856,664.324,825.342s78.96-176.564,176.359-176.564S1017.039,727.83,1017.039,825.342Zm-29.324,24.229c0,97.512-78.96,176.565-176.356,176.565S635,947.083,635,849.571s78.96-176.564,176.359-176.564S987.715,752.06,987.715,849.571Zm186.165-60.519c0,97.512-78.96,176.564-176.359,176.564S821.165,886.563,821.165,789.052s78.96-176.564,176.356-176.564S1173.88,691.54,1173.88,789.052Z" fill="none" stroke="#0092d5" stroke-miterlimit="10" stroke-width="0.645"/>
    <path id="Path_43" data-name="Path 43" d="M959.974,1044.173c0,203.285-164.615,368.078-367.685,368.078-203.054,0-367.67-164.793-367.67-368.078S389.235,676.11,592.289,676.11C795.359,676.11,959.974,840.9,959.974,1044.173Zm41.354,0c0,203.285-164.615,368.078-367.685,368.078-203.054,0-367.67-164.793-367.67-368.078S430.589,676.11,633.643,676.11C836.713,676.11,1001.328,840.9,1001.328,1044.173Zm176.348-445.809c0,203.285-164.615,368.081-367.685,368.081-203.054,0-367.67-164.8-367.67-368.081,0-203.27,164.615-368.063,367.67-368.063C1013.061,230.3,1177.676,395.094,1177.676,598.364Zm298.741,357.714c0,203.285-164.615,368.079-367.685,368.079-203.054,0-367.669-164.793-367.669-368.079s164.615-368.063,367.669-368.063C1311.8,588.015,1476.417,752.806,1476.417,956.078Zm-652.062,0c0,203.285-164.615,368.079-367.685,368.079C253.616,1324.157,89,1159.364,89,956.078S253.616,588.015,456.67,588.015C659.74,588.015,824.355,752.806,824.355,956.078Zm467.39,88.1c0,203.285-164.615,368.078-367.685,368.078-203.054,0-367.67-164.793-367.67-368.078S721.006,676.11,924.06,676.11C1127.13,676.11,1291.745,840.9,1291.745,1044.173Z" fill="none" stroke="#d9000d" stroke-miterlimit="10" stroke-width="0.645"/>
    <path id="Path_44" data-name="Path 44" d="M1177.328,1146.606,452.471,594.718m-80.51,507.14L2097.873,284.027" fill="none" stroke="#0092d5" stroke-miterlimit="10" stroke-width="0.645"/>
    <ellipse id="Ellipse_1" data-name="Ellipse 1" cx="175.979" cy="176.163" rx="175.979" ry="176.163" transform="matrix(1, -0.005, 0.005, 1, 1533.386, 289.593)" fill="none" stroke="#0092d5" stroke-miterlimit="10" stroke-width="0.645"/>
    <path id="Path_52" data-name="Path 52" d="M2078.374,464.818c0,202.808-164.234,367.216-366.831,367.216-202.582,0-366.813-164.408-366.813-367.216s164.231-367.2,366.813-367.2C1914.14,97.617,2078.374,262.023,2078.374,464.818Z" fill="none" stroke="#d9000d" stroke-miterlimit="10" stroke-width="0.645"/>
    <path id="Path_53" data-name="Path 53" d="M1990.129,206.252H1681.94M1319.217,466.93h781.459m-31.751-182.9L1607.62,745.78m272.672,65.4L1448.919,379.39m614.665,265.1L1607.62,188.08m382.508,0-557.159,557.7m278.581-673.2V861.283" fill="none" stroke="#0092d5" stroke-miterlimit="10" stroke-width="0.645"/>
  </g>
</svg>
