<svg xmlns="http://www.w3.org/2000/svg" viewBox="0 0 780.06 518.98"><defs><style>.cls-1,.cls-2,.cls-3,.cls-4,.cls-5{fill:none;}.cls-1{stroke:#1ea1dc;}.cls-1,.cls-2,.cls-3{stroke-miterlimit:10;stroke-width:0.25px;}.cls-2{stroke:#e30613;}.cls-3{stroke:#eb5888;}.cls-3,.cls-4{stroke-linecap:round;}.cls-4,.cls-5{stroke:#fff;stroke-linejoin:round;stroke-width:3px;}.cls-6{fill:#fff;}</style></defs><title>mtz_logo_construct</title><g id="Layer_2" data-name="Layer 2"><g id="Layer_1-2" data-name="Layer 1"><path class="cls-1" d="M224.53,330.87a68.38,68.38,0,1,1-68.38-68.39A68.38,68.38,0,0,1,224.53,330.87Zm0-24.84a68.38,68.38,0,1,1-68.38-68.38A68.38,68.38,0,0,1,224.53,306ZM298,264.54a68.38,68.38,0,1,1-68.37-68.38A68.38,68.38,0,0,1,298,264.54Zm61.89,27a68.38,68.38,0,1,1-68.37-68.39A68.38,68.38,0,0,1,359.93,291.55Zm-11.37,9.38a68.38,68.38,0,1,1-68.37-68.38A68.37,68.37,0,0,1,348.56,300.93Zm72.18-23.44a68.38,68.38,0,1,1-68.38-68.38A68.38,68.38,0,0,1,420.74,277.49Z"/><path class="cls-2" d="M337.8,376.3A142.55,142.55,0,1,1,195.25,233.75,142.55,142.55,0,0,1,337.8,376.3Zm16,0A142.55,142.55,0,1,1,211.28,233.75,142.55,142.55,0,0,1,353.84,376.3Zm68.37-172.66A142.55,142.55,0,1,1,279.66,61.09,142.55,142.55,0,0,1,422.21,203.64ZM538,342.18A142.55,142.55,0,1,1,395.48,199.63,142.56,142.56,0,0,1,538,342.18Zm-252.81,0A142.55,142.55,0,1,1,142.67,199.63,142.56,142.56,0,0,1,285.22,342.18ZM466.43,376.3A142.55,142.55,0,1,1,323.88,233.75,142.55,142.55,0,0,1,466.43,376.3Z"/><path class="cls-1" d="M422.07,416,141,202.22M109.83,398.64,779,81.89"/><path class="cls-3" d="M177.16,300.93a18.65,18.65,0,1,1,18.64,18.64A18.64,18.64,0,0,1,177.16,300.93Z"/><path class="cls-4" d="M285.29,346.47a68.94,68.94,0,0,0,11.93-.33c3.42-.51,10.23-2.57,11.63-2.65,2.11-.12,14.07,4.84,18.37,2.65,4-2.07,10.91-10.13,10.91-10.13s4.7-1.1,7.39-3.81,14.58-23.33,12.87-32.32c-1-5.49-11.69-13.77-11.69-13.77s-3.31-19.41-14.89-31c-25.19-25.23-54.45-21.4-69-14.21-18.48,9.15-31.9,28.66-31.9,28.66s-16.67,12.88-31.76,40.65c-3.28,6-16.5,33.87-15.77,53.84,0,0,8,1,10.55-.62,7.7-4.88,17.08-16.67,21.27-23.7a65.77,65.77,0,0,0,3.94-7.38,75.44,75.44,0,0,0,20.94,9.35,62.44,62.44,0,0,0,12.77,2.09l.12,7.44c4.57,1.4,12.23,0,12.23,0s.41,9.63,1.29,11.86,16.35,1.64,17.25,1.09C285.3,363.24,285.29,346.47,285.29,346.47Z"/><path class="cls-5" d="M346.67,330.73a130.42,130.42,0,0,1,5.82,23,102.22,102.22,0,0,1,1,10.82H336.9s-.29-5-1.16-10.53c-.26-1.62-8.53,2-8.89.45-1.73-7.67-1.25-8.08-1.25-8.08"/><path class="cls-4" d="M211.05,290.34c-15.07-21.83-49.1,3.07-27.11,25.17,4.25,4.28,2.07,9.32-2.2,9.32m103,6.12a166.22,166.22,0,0,1,.53,16.74m-24.57-54.13c-5.36,11.76-7.2,30.54-7.74,42.2-.2,4.49.06,15.43.06,15.43m-12.88-9.56c-3.84,9.76-11.52,20.56-14.56,21.85-1.7.73-9.62.57-9.62.57a84.21,84.21,0,0,0,5.12-12c3.68-11.75,3.29-16.78,3.29-16.78m130.28-19.39s9.44-1.15,11.83-6.51c2-4.61,1-4.8,1-4.8s-5.28,4.38-9,3.12m-37.39-15.11a58.09,58.09,0,0,1-5.58-7.69,20.38,20.38,0,0,1-1.88-7.58s-1.47-1.12-3.39,3.54,0,11.73,0,11.73"/><path class="cls-6" d="M323.88,315.13c-.93-2.16-5.13-9.67-5.13-9.67a5.3,5.3,0,0,0-2,1.48c-.74,1-1.31,2.63-.89,5.57a9,9,0,0,1,1.76-.32c3.48,4.62,3.46.11,6.22,2.94"/><path class="cls-6" d="M326.85,340.9c-4.49-1.9-7.33-3.42-7.69-3.62s-1.23.54-1.44,1.48a1.71,1.71,0,0,0,2.1,2.13,15.79,15.79,0,0,1,3.64.29,12.14,12.14,0,0,0,3.39-.28"/><path class="cls-4" d="M346.75,286.67A77.27,77.27,0,0,0,327,278.56"/><circle class="cls-1" cx="628.71" cy="151.92" r="68.23" transform="translate(-0.79 3.31) rotate(-0.3)"/><path class="cls-2" d="M771.41,151.91A142.22,142.22,0,1,1,629.19,9.7,142.22,142.22,0,0,1,771.41,151.91Z"/><path class="cls-1" d="M737.2,51.77H617.71m-140.62,101h303M767.75,81.89,588.9,260.73m105.72,25.33L527.37,118.83M765.68,221.5,588.9,44.73m148.3,0-216,216M629.19,0V305.46"/></g></g></svg>