<svg xmlns="http://www.w3.org/2000/svg" width="861" height="307" viewBox="0 0 861 307">
  <g id="context-adv-img" transform="translate(-253 -432)">
    <path id="logo.svg" d="M1368.5,161a75.5,75.5,0,1,0,75.5,75.5A75.5,75.5,0,0,0,1368.5,161Zm43.083,26.134-22.674,30.789a5.869,5.869,0,0,1-.753,1.324l-25.266,35.07H1389.1c2.168,0,2.736,1.037,2.736,2.734v7.731c0,1.7-.568,2.733-2.736,2.733h-36.7c-6.8,9.232-12.093,16.419-14.276,19.383a3.489,3.489,0,0,1-2.809,1.409c-3.585.012-11.4.031-11.974.025a1.359,1.359,0,0,1-1.113-2.128c5.769-7.827,25.585-34.731,43.163-58.594l6.462-8.928h-23.1c-2.166,0-2.733-1.037-2.733-2.733v-7.731c0-1.7.568-2.734,2.733-2.734h32.933c7.851-10.657,13.369-18.144,13.821-18.749a5.062,5.062,0,0,1,4.4-1.936s9.795.087,10.656.039A1.366,1.366,0,0,1,1411.584,187.134Z" transform="translate(-694.203 332.999)" fill="none" stroke="#fff" stroke-width="1" stroke-dasharray="2"/>
    <circle id="Ellipse_34" data-name="Ellipse 34" cx="9" cy="9" r="9" transform="translate(750 476)" fill="#d9000d"/>
    <g id="Rectangle_1" data-name="Rectangle 1" transform="translate(253 432)" fill="none" stroke="#fff" stroke-width="4">
      <rect width="145" height="307" stroke="none"/>
      <rect x="2" y="2" width="141" height="303" fill="none"/>
    </g>
    <g id="Rectangle_50" data-name="Rectangle 50" transform="translate(416 432)" fill="none" stroke="#ffea34" stroke-width="4">
      <rect width="145" height="62" stroke="none"/>
      <rect x="2" y="2" width="141" height="58" fill="none"/>
    </g>
    <g id="Rectangle_53" data-name="Rectangle 53" transform="translate(969 512)" fill="none" stroke="#ffea34" stroke-width="4">
      <rect width="145" height="139" stroke="none"/>
      <rect x="2" y="2" width="141" height="135" fill="none"/>
    </g>
    <g id="Rectangle_51" data-name="Rectangle 51" transform="translate(805 677)" fill="none" stroke="#0f70a1" stroke-width="4">
      <rect width="145" height="62" stroke="none"/>
      <rect x="2" y="2" width="141" height="58" fill="none"/>
    </g>
    <line id="Line_1" data-name="Line 1" x2="42" transform="translate(268.5 455.5)" fill="none" stroke="#fff" stroke-width="1"/>
    <line id="Line_157" data-name="Line 157" x2="42" transform="translate(431.5 455.5)" fill="none" stroke="#fff" stroke-width="1"/>
    <line id="Line_179" data-name="Line 179" x2="42" transform="translate(984.5 455.5)" fill="none" stroke="#fff" stroke-width="1"/>
    <line id="Line_178" data-name="Line 178" x2="42" transform="translate(820.5 455.5)" fill="none" stroke="#fff" stroke-width="1"/>
    <line id="Line_2" data-name="Line 2" x2="42" transform="translate(268.5 464.5)" fill="none" stroke="#fff" stroke-width="1"/>
    <line id="Line_158" data-name="Line 158" x2="42" transform="translate(431.5 464.5)" fill="none" stroke="#fff" stroke-width="1"/>
    <line id="Line_180" data-name="Line 180" x2="42" transform="translate(984.5 464.5)" fill="none" stroke="#fff" stroke-width="1"/>
    <line id="Line_176" data-name="Line 176" x2="42" transform="translate(820.5 464.5)" fill="none" stroke="#fff" stroke-width="1"/>
    <line id="Line_3" data-name="Line 3" x2="42" transform="translate(268.5 472.5)" fill="none" stroke="#fff" stroke-width="1"/>
    <line id="Line_159" data-name="Line 159" x2="42" transform="translate(431.5 472.5)" fill="none" stroke="#fff" stroke-width="1"/>
    <line id="Line_181" data-name="Line 181" x2="42" transform="translate(984.5 472.5)" fill="none" stroke="#fff" stroke-width="1"/>
    <line id="Line_177" data-name="Line 177" x2="42" transform="translate(820.5 472.5)" fill="none" stroke="#fff" stroke-width="1"/>
    <line id="Line_14" data-name="Line 14" x2="42" transform="translate(268.5 537.003)" fill="none" stroke="#fff" stroke-width="2"/>
    <line id="Line_160" data-name="Line 160" x2="42" transform="translate(431.5 537.003)" fill="none" stroke="#fff" stroke-width="2"/>
    <line id="Line_182" data-name="Line 182" x2="42" transform="translate(984.5 537.003)" fill="none" stroke="#fff" stroke-width="2"/>
    <line id="Line_174" data-name="Line 174" x2="42" transform="translate(820.5 537.003)" fill="none" stroke="#fff" stroke-width="2"/>
    <line id="Line_4" data-name="Line 4" x2="106.164" transform="translate(272.5 698.336)" fill="none" stroke="#fff" stroke-width="1"/>
    <line id="Line_167" data-name="Line 167" x2="106.164" transform="translate(435.5 698.336)" fill="none" stroke="#fff" stroke-width="1"/>
    <line id="Line_189" data-name="Line 189" x2="106.164" transform="translate(988.5 698.336)" fill="none" stroke="#fff" stroke-width="1"/>
    <line id="Line_168" data-name="Line 168" x2="106.164" transform="translate(824.5 698.336)" fill="none" stroke="#fff" stroke-width="1"/>
    <line id="Line_5" data-name="Line 5" x2="110.164" transform="translate(268.5 559.639)" fill="none" stroke="#fff" stroke-width="1"/>
    <line id="Line_161" data-name="Line 161" x2="110.164" transform="translate(431.5 559.639)" fill="none" stroke="#fff" stroke-width="1"/>
    <line id="Line_183" data-name="Line 183" x2="110.164" transform="translate(984.5 559.639)" fill="none" stroke="#fff" stroke-width="1"/>
    <line id="Line_175" data-name="Line 175" x2="110.164" transform="translate(820.5 559.639)" fill="none" stroke="#fff" stroke-width="1"/>
    <line id="Line_6" data-name="Line 6" x2="110.164" transform="translate(268.5 572.214)" fill="none" stroke="#fff" stroke-width="1"/>
    <line id="Line_162" data-name="Line 162" x2="110.164" transform="translate(431.5 572.214)" fill="none" stroke="#fff" stroke-width="1"/>
    <line id="Line_184" data-name="Line 184" x2="110.164" transform="translate(984.5 572.214)" fill="none" stroke="#fff" stroke-width="1"/>
    <line id="Line_172" data-name="Line 172" x2="110.164" transform="translate(820.5 572.214)" fill="none" stroke="#fff" stroke-width="1"/>
    <line id="Line_7" data-name="Line 7" x2="110.164" transform="translate(268.5 584.789)" fill="none" stroke="#fff" stroke-width="1"/>
    <line id="Line_163" data-name="Line 163" x2="110.164" transform="translate(431.5 584.789)" fill="none" stroke="#fff" stroke-width="1"/>
    <line id="Line_185" data-name="Line 185" x2="110.164" transform="translate(984.5 584.789)" fill="none" stroke="#fff" stroke-width="1"/>
    <line id="Line_173" data-name="Line 173" x2="110.164" transform="translate(820.5 584.789)" fill="none" stroke="#fff" stroke-width="1"/>
    <line id="Line_8" data-name="Line 8" x2="110.164" transform="translate(268.5 597.364)" fill="none" stroke="#fff" stroke-width="1"/>
    <line id="Line_164" data-name="Line 164" x2="110.164" transform="translate(431.5 597.364)" fill="none" stroke="#fff" stroke-width="1"/>
    <line id="Line_186" data-name="Line 186" x2="110.164" transform="translate(984.5 597.364)" fill="none" stroke="#fff" stroke-width="1"/>
    <line id="Line_169" data-name="Line 169" x2="110.164" transform="translate(820.5 597.364)" fill="none" stroke="#fff" stroke-width="1"/>
    <line id="Line_9" data-name="Line 9" x2="110.164" transform="translate(268.5 609.94)" fill="none" stroke="#fff" stroke-width="1"/>
    <line id="Line_165" data-name="Line 165" x2="110.164" transform="translate(431.5 609.94)" fill="none" stroke="#fff" stroke-width="1"/>
    <line id="Line_187" data-name="Line 187" x2="110.164" transform="translate(984.5 609.94)" fill="none" stroke="#fff" stroke-width="1"/>
    <line id="Line_170" data-name="Line 170" x2="110.164" transform="translate(820.5 609.94)" fill="none" stroke="#fff" stroke-width="1"/>
    <line id="Line_10" data-name="Line 10" x2="110.164" transform="translate(268.5 622.515)" fill="none" stroke="#fff" stroke-width="1"/>
    <line id="Line_166" data-name="Line 166" x2="110.164" transform="translate(431.5 622.515)" fill="none" stroke="#fff" stroke-width="1"/>
    <line id="Line_188" data-name="Line 188" x2="110.164" transform="translate(984.5 622.515)" fill="none" stroke="#fff" stroke-width="1"/>
    <line id="Line_171" data-name="Line 171" x2="110.164" transform="translate(820.5 622.515)" fill="none" stroke="#fff" stroke-width="1"/>
  </g>
</svg>
