<svg xmlns="http://www.w3.org/2000/svg" width="1093.343" height="1235.809" viewBox="0 0 1093.343 1235.809">
  <g id="form-style-bg" transform="translate(-117.388 -152.682)">
    <path id="Path_53" data-name="Path 53" d="M1990.129,206.252H1681.94M1319.217,466.93h781.459m-31.751-182.9L1607.62,745.78M1476.94,578.852V371.442m586.644,273.044L1607.62,188.08m382.508,0-557.159,557.7" transform="translate(-1054.001 68.425)" fill="none" stroke="#0092d5" stroke-miterlimit="10" stroke-width="0.645"/>
    <path id="Path_241" data-name="Path 241" d="M1990.129,206.252H1681.94M1319.217,466.93h781.459m-31.751-182.9L1607.62,745.78M1476.94,578.852V371.442m586.644,273.044L1607.62,188.08m382.508,0-557.159,557.7" transform="translate(-1054.001 370.425)" fill="none" stroke="#0092d5" stroke-miterlimit="10" stroke-width="0.645"/>
    <path id="Path_52" data-name="Path 52" d="M1789.427,320.2c0,122.932-99.55,222.588-222.354,222.588S1344.729,443.127,1344.729,320.2s99.548-222.578,222.344-222.578S1789.427,197.272,1789.427,320.2Z" transform="translate(-1177.018 201.387)" fill="none" stroke="#d9000d" stroke-miterlimit="10" stroke-width="0.645"/>
    <path id="Path_221" data-name="Path 221" d="M1789.427,320.2c0,122.932-99.55,222.588-222.354,222.588S1344.729,443.127,1344.729,320.2s99.548-222.578,222.344-222.578S1789.427,197.272,1789.427,320.2Z" transform="translate(-579.018 55.387)" fill="none" stroke="#d9000d" stroke-miterlimit="10" stroke-width="0.645"/>
    <path id="Path_225" data-name="Path 225" d="M2109.088,480.191c0,211.3-171.109,382.59-382.189,382.59-211.064,0-382.17-171.291-382.17-382.59S1515.836,97.617,1726.9,97.617C1937.979,97.617,2109.088,268.906,2109.088,480.191Z" transform="translate(-1227.018 525.387)" fill="none" stroke="#d9000d" stroke-miterlimit="10" stroke-width="0.645"/>
    <path id="Path_240" data-name="Path 240" d="M2109.088,480.191c0,211.3-171.109,382.59-382.189,382.59-211.064,0-382.17-171.291-382.17-382.59S1515.836,97.617,1726.9,97.617C1937.979,97.617,2109.088,268.906,2109.088,480.191Z" transform="translate(-1121.018 456.387)" fill="none" stroke="#d9000d" stroke-miterlimit="10" stroke-width="0.645"/>
  </g>
</svg>
