<svg xmlns="http://www.w3.org/2000/svg" width="839" height="725" viewBox="0 0 839 725">
  <g id="form-style-img" transform="translate(-253 -432)">
    <g id="Group_39" data-name="Group 39">
      <g id="Rectangle_1" data-name="Rectangle 1" transform="translate(253 432)" fill="none" stroke="#fff" stroke-width="4">
        <rect width="174" height="244" stroke="none"/>
        <rect x="2" y="2" width="170" height="240" fill="none"/>
      </g>
      <g id="Rectangle_14" data-name="Rectangle 14" transform="translate(253 697)" fill="none" stroke="#fff" stroke-width="4">
        <rect width="346" height="244" stroke="none"/>
        <rect x="2" y="2" width="342" height="240" fill="none"/>
      </g>
      <g id="Rectangle_20" data-name="Rectangle 20" transform="translate(367 953)" fill="none" stroke="#fff" stroke-width="4">
        <rect width="346" height="204" stroke="none"/>
        <rect x="2" y="2" width="342" height="200" fill="none"/>
      </g>
      <g id="Rectangle_15" data-name="Rectangle 15" transform="translate(746 700)" fill="none" stroke="#fff" stroke-width="4">
        <rect width="346" height="457" stroke="none"/>
        <rect x="2" y="2" width="342" height="453" fill="none"/>
      </g>
    </g>
    <g id="Group_38" data-name="Group 38">
      <g id="Rectangle_2" data-name="Rectangle 2" transform="translate(460 432)" fill="none" stroke="#fff" stroke-width="4">
        <rect width="174" height="244" stroke="none"/>
        <rect x="2" y="2" width="170" height="240" fill="none"/>
      </g>
      <g id="Rectangle_3" data-name="Rectangle 3" transform="translate(656 432)" fill="none" stroke="#fff" stroke-width="4">
        <rect width="91" height="53" stroke="none"/>
        <rect x="2" y="2" width="87" height="49" fill="none"/>
      </g>
      <g id="Rectangle_11" data-name="Rectangle 11" transform="translate(763 432)" fill="none" stroke="#fff" stroke-width="4">
        <rect width="175" height="88" stroke="none"/>
        <rect x="2" y="2" width="171" height="84" fill="none"/>
      </g>
      <g id="Rectangle_12" data-name="Rectangle 12" transform="translate(763 536)" fill="none" stroke="#fff" stroke-width="4">
        <rect width="175" height="88" stroke="none"/>
        <rect x="2" y="2" width="171" height="84" fill="none"/>
      </g>
      <g id="Rectangle_13" data-name="Rectangle 13" transform="translate(954 557)" fill="none" stroke="#fff" stroke-width="4">
        <rect width="125" height="119" stroke="none"/>
        <rect x="2" y="2" width="121" height="115" fill="none"/>
      </g>
      <g id="Rectangle_4" data-name="Rectangle 4" transform="translate(656 507)" fill="none" stroke="#fff" stroke-width="4">
        <rect width="91" height="53" stroke="none"/>
        <rect x="2" y="2" width="87" height="49" fill="none"/>
      </g>
      <g id="Rectangle_17" data-name="Rectangle 17" transform="translate(253 1029)" fill="none" stroke="#fff" stroke-width="4">
        <rect width="91" height="126" stroke="none"/>
        <rect x="2" y="2" width="87" height="122" fill="none"/>
      </g>
      <g id="Rectangle_5" data-name="Rectangle 5" transform="translate(656 571)" fill="none" stroke="#fff" stroke-width="4">
        <rect width="18" height="105" stroke="none"/>
        <rect x="2" y="2" width="14" height="101" fill="none"/>
      </g>
      <g id="Rectangle_7" data-name="Rectangle 7" transform="translate(689 571)" fill="none" stroke="#fff" stroke-width="1">
        <rect width="58" height="31" stroke="none"/>
        <rect x="0.5" y="0.5" width="57" height="30" fill="none"/>
      </g>
      <g id="Rectangle_24" data-name="Rectangle 24" transform="translate(254.5 1004.5) rotate(-90)" fill="none" stroke="#fff" stroke-width="1">
        <rect width="42" height="31" stroke="none"/>
        <rect x="0.5" y="0.5" width="41" height="30" fill="none"/>
      </g>
      <g id="Rectangle_21" data-name="Rectangle 21" transform="translate(625 812)" fill="none" stroke="#fff" stroke-width="1">
        <rect width="88" height="78" stroke="none"/>
        <rect x="0.5" y="0.5" width="87" height="77" fill="none"/>
      </g>
      <g id="Rectangle_16" data-name="Rectangle 16" transform="translate(866 733)" fill="none" stroke="#fff" stroke-width="1">
        <rect width="106" height="31" rx="15.5" stroke="none"/>
        <rect x="0.5" y="0.5" width="105" height="30" rx="15" fill="none"/>
      </g>
      <g id="Rectangle_18" data-name="Rectangle 18" transform="translate(269 1039)" fill="none" stroke="#fff" stroke-width="1">
        <rect width="59" height="8" rx="4" stroke="none"/>
        <rect x="0.5" y="0.5" width="58" height="7" rx="3.5" fill="none"/>
      </g>
      <g id="Rectangle_8" data-name="Rectangle 8" transform="translate(689 618)" fill="none" stroke="#fff" stroke-width="1">
        <rect width="22" height="22" stroke="none"/>
        <rect x="0.5" y="0.5" width="21" height="21" fill="none"/>
      </g>
      <g id="Rectangle_9" data-name="Rectangle 9" transform="translate(726 618)" fill="none" stroke="#fff" stroke-width="1">
        <rect width="21" height="22" stroke="none"/>
        <rect x="0.5" y="0.5" width="20" height="21" fill="none"/>
      </g>
      <g id="Rectangle_19" data-name="Rectangle 19" transform="translate(265 1065)" fill="none" stroke="#fff" stroke-width="1">
        <rect width="25" height="30" stroke="none"/>
        <rect x="0.5" y="0.5" width="24" height="29" fill="none"/>
      </g>
      <g id="Rectangle_22" data-name="Rectangle 22" transform="translate(383 997)" fill="none" stroke="#fff" stroke-width="1">
        <rect width="54" height="40" stroke="none"/>
        <rect x="0.5" y="0.5" width="53" height="39" fill="none"/>
      </g>
      <g id="Rectangle_23" data-name="Rectangle 23" transform="translate(612 997)" fill="none" stroke="#fff" stroke-width="1">
        <rect width="88" height="63" stroke="none"/>
        <rect x="0.5" y="0.5" width="87" height="62" fill="none"/>
      </g>
      <g id="Rectangle_10" data-name="Rectangle 10" transform="translate(689 662)" fill="none" stroke="#fff" stroke-width="1">
        <rect width="58" height="14" stroke="none"/>
        <rect x="0.5" y="0.5" width="57" height="13" fill="none"/>
      </g>
      <g id="Rectangle_25" data-name="Rectangle 25" transform="translate(296 991)" fill="none" stroke="#fff" stroke-width="1">
        <rect width="48" height="14" stroke="none"/>
        <rect x="0.5" y="0.5" width="47" height="13" fill="none"/>
      </g>
      <g id="Rectangle_26" data-name="Rectangle 26" transform="translate(296 962)" fill="none" stroke="#fff" stroke-width="1">
        <rect width="48" height="14" stroke="none"/>
        <rect x="0.5" y="0.5" width="47" height="13" fill="none"/>
      </g>
    </g>
    <g id="Group_37" data-name="Group 37">
      <line id="Line_1" data-name="Line 1" x2="42" transform="translate(268.5 455.5)" fill="none" stroke="#fff" stroke-width="1"/>
      <line id="Line_15" data-name="Line 15" x2="42" transform="translate(475.5 455.5)" fill="none" stroke="#fff" stroke-width="1"/>
      <line id="Line_49" data-name="Line 49" y2="239" transform="translate(425.5 699.5)" fill="none" stroke="#fff" stroke-width="1"/>
      <line id="Line_60" data-name="Line 60" y2="199" transform="translate(599.5 955.5)" fill="none" stroke="#fff" stroke-width="1"/>
      <line id="Line_61" data-name="Line 61" y2="199" transform="translate(480.5 955.5)" fill="none" stroke="#fff" stroke-width="1"/>
      <line id="Line_28" data-name="Line 28" x2="42" transform="translate(667.5 444.5)" fill="none" stroke="#fff" stroke-width="1"/>
      <line id="Line_32" data-name="Line 32" x2="42" transform="translate(774.5 452.637)" fill="none" stroke="#fff" stroke-width="1"/>
      <line id="Line_42" data-name="Line 42" x2="117" transform="translate(958.5 582.637)" fill="none" stroke="#fff" stroke-width="1"/>
      <line id="Line_35" data-name="Line 35" x2="87" y2="66" transform="translate(763.5 536.5)" fill="none" stroke="#fff" stroke-width="1"/>
      <line id="Line_29" data-name="Line 29" x2="42" transform="translate(667.5 519.5)" fill="none" stroke="#fff" stroke-width="1"/>
      <line id="Line_54" data-name="Line 54" x2="42" transform="translate(264.5 1114.5)" fill="none" stroke="#fff" stroke-width="1"/>
    </g>
    <g id="Group_36" data-name="Group 36">
      <line id="Line_13" data-name="Line 13" x2="42" transform="translate(361.5 455.5)" fill="none" stroke="#fff" stroke-width="1"/>
      <line id="Line_2" data-name="Line 2" x2="42" transform="translate(268.5 464.5)" fill="none" stroke="#fff" stroke-width="1"/>
      <line id="Line_16" data-name="Line 16" x2="42" transform="translate(568.5 455.5)" fill="none" stroke="#fff" stroke-width="1"/>
      <line id="Line_50" data-name="Line 50" x2="42" transform="translate(272.5 910.5)" fill="none" stroke="#fff" stroke-width="1"/>
      <line id="Line_52" data-name="Line 52" x2="42" transform="translate(547.5 910.5)" fill="none" stroke="#fff" stroke-width="1"/>
      <line id="Line_27" data-name="Line 27" x2="42" transform="translate(694.5 460.5)" fill="none" stroke="#fff" stroke-width="1"/>
      <line id="Line_33" data-name="Line 33" x2="42" transform="translate(885.379 479.052)" fill="none" stroke="#fff" stroke-width="1"/>
      <line id="Line_40" data-name="Line 40" x2="35.527" transform="translate(1000.002 510.866)" fill="none" stroke="#fff" stroke-width="1"/>
      <line id="Line_41" data-name="Line 41" x2="35.527" transform="translate(1000.002 519.325)" fill="none" stroke="#fff" stroke-width="1"/>
      <line id="Line_36" data-name="Line 36" y1="66" x2="85" transform="translate(850.5 536.5)" fill="none" stroke="#fff" stroke-width="1"/>
      <line id="Line_30" data-name="Line 30" x2="42" transform="translate(694.5 535.5)" fill="none" stroke="#fff" stroke-width="1"/>
      <line id="Line_55" data-name="Line 55" x2="69" transform="translate(264.5 1130.5)" fill="none" stroke="#fff" stroke-width="1"/>
      <line id="Line_57" data-name="Line 57" x2="34.5" transform="translate(383 1047.5)" fill="none" stroke="#fff" stroke-width="1"/>
      <line id="Line_75" data-name="Line 75" y2="30" transform="translate(255 978.069) rotate(-90)" fill="none" stroke="#fff" stroke-width="1"/>
      <line id="Line_71" data-name="Line 71" x2="34.5" transform="translate(612 1121.5)" fill="none" stroke="#fff" stroke-width="1"/>
      <line id="Line_76" data-name="Line 76" x2="46.167" transform="translate(861 1097.5)" fill="none" stroke="#fff" stroke-width="1"/>
      <line id="Line_79" data-name="Line 79" x2="46.167" transform="translate(935 1097.5)" fill="none" stroke="#fff" stroke-width="1"/>
      <line id="Line_63" data-name="Line 63" x2="80.166" transform="translate(383 1121.5)" fill="none" stroke="#fff" stroke-width="1"/>
      <line id="Line_66" data-name="Line 66" x2="80.166" transform="translate(500 997.5)" fill="none" stroke="#fff" stroke-width="4"/>
      <line id="Line_72" data-name="Line 72" x2="88" transform="translate(612 1080.5)" fill="none" stroke="#fff" stroke-width="1"/>
    </g>
    <g id="Group_35" data-name="Group 35">
      <line id="Line_58" data-name="Line 58" x2="34.5" transform="translate(383 1056.5)" fill="none" stroke="#fff" stroke-width="1"/>
      <line id="Line_70" data-name="Line 70" x2="34.5" transform="translate(612 1130.5)" fill="none" stroke="#fff" stroke-width="1"/>
      <line id="Line_77" data-name="Line 77" x2="46.167" transform="translate(861 1106.5)" fill="none" stroke="#fff" stroke-width="1"/>
      <line id="Line_80" data-name="Line 80" x2="46.167" transform="translate(935 1106.5)" fill="none" stroke="#fff" stroke-width="1"/>
      <line id="Line_64" data-name="Line 64" x2="80.166" transform="translate(383 1130.5)" fill="none" stroke="#fff" stroke-width="1"/>
      <line id="Line_67" data-name="Line 67" x2="80.166" transform="translate(500 1130.5)" fill="none" stroke="#fff" stroke-width="1"/>
      <line id="Line_73" data-name="Line 73" x2="88" transform="translate(612 1089.5)" fill="none" stroke="#fff" stroke-width="1"/>
      <line id="Line_59" data-name="Line 59" x2="34.5" transform="translate(383 1065.5)" fill="none" stroke="#fff" stroke-width="1"/>
      <line id="Line_69" data-name="Line 69" x2="34.5" transform="translate(612 1139.5)" fill="none" stroke="#fff" stroke-width="1"/>
      <line id="Line_78" data-name="Line 78" x2="46.167" transform="translate(861 1115.5)" fill="none" stroke="#fff" stroke-width="1"/>
      <line id="Line_81" data-name="Line 81" x2="46.167" transform="translate(935 1115.5)" fill="none" stroke="#fff" stroke-width="1"/>
      <line id="Line_65" data-name="Line 65" x2="80.166" transform="translate(383 1139.5)" fill="none" stroke="#fff" stroke-width="1"/>
      <line id="Line_68" data-name="Line 68" x2="80.166" transform="translate(500 1139.5)" fill="none" stroke="#fff" stroke-width="1"/>
      <line id="Line_74" data-name="Line 74" x2="88" transform="translate(612 1098.5)" fill="none" stroke="#fff" stroke-width="1"/>
      <line id="Line_3" data-name="Line 3" x2="42" transform="translate(268.5 472.5)" fill="none" stroke="#fff" stroke-width="1"/>
      <line id="Line_17" data-name="Line 17" x2="42" transform="translate(568.5 463.5)" fill="none" stroke="#fff" stroke-width="1"/>
      <line id="Line_51" data-name="Line 51" x2="42" transform="translate(272.5 918.5)" fill="none" stroke="#fff" stroke-width="1"/>
      <line id="Line_53" data-name="Line 53" x2="42" transform="translate(547.5 918.5)" fill="none" stroke="#fff" stroke-width="1"/>
      <line id="Line_26" data-name="Line 26" x2="42" transform="translate(694.5 468.5)" fill="none" stroke="#fff" stroke-width="1"/>
      <line id="Line_34" data-name="Line 34" x2="42" transform="translate(885.379 492.259)" fill="none" stroke="#fff" stroke-width="1"/>
      <line id="Line_39" data-name="Line 39" x2="42" transform="translate(778.379 608.259)" fill="none" stroke="#fff" stroke-width="1"/>
      <line id="Line_44" data-name="Line 44" x2="42" transform="translate(967.379 662.259)" fill="none" stroke="#fff" stroke-width="1"/>
      <line id="Line_38" data-name="Line 38" x2="42" transform="translate(778.379 599.259)" fill="none" stroke="#fff" stroke-width="1"/>
    </g>
    <g id="Group_17" data-name="Group 17" transform="translate(1 -46)">
      <path id="Path_222" data-name="Path 222" d="M0,0H6V114.65L3.109,129.443,0,114.65Z" transform="translate(913.441 713.5) rotate(90)" fill="#fff"/>
      <line id="Line_47" data-name="Line 47" x2="12" transform="translate(780.998 716.5)" fill="none" stroke="#fff" stroke-width="1"/>
      <path id="Path_223" data-name="Path 223" d="M-30,0H12" transform="translate(897.939 711.5)" fill="none" stroke="#fff" stroke-width="1"/>
      <line id="Line_48" data-name="Line 48" x2="12" transform="translate(906.441 716.5)" fill="none" stroke="#fff" stroke-width="3"/>
    </g>
    <g id="Group_18" data-name="Group 18" transform="translate(1 -66)">
      <path id="Path_222-2" data-name="Path 222" d="M0,0H6V114.65L3.109,129.443,0,114.65Z" transform="translate(913.441 713.5) rotate(90)" fill="#fff"/>
      <line id="Line_47-2" data-name="Line 47" x2="12" transform="translate(780.998 716.5)" fill="none" stroke="#fff" stroke-width="1"/>
      <path id="Path_223-2" data-name="Path 223" d="M-30,0H12" transform="translate(897.939 711.5)" fill="none" stroke="#fff" stroke-width="1"/>
      <line id="Line_48-2" data-name="Line 48" x2="12" transform="translate(906.441 716.5)" fill="none" stroke="#fff" stroke-width="3"/>
    </g>
    <g id="Group_34" data-name="Group 34">
      <line id="Line_43" data-name="Line 43" x2="42" transform="translate(967.379 653.259)" fill="none" stroke="#fff" stroke-width="1"/>
      <line id="Line_45" data-name="Line 45" x2="42" transform="translate(967.379 644.259)" fill="none" stroke="#fff" stroke-width="1"/>
      <line id="Line_46" data-name="Line 46" x2="42" transform="translate(967.379 596.259)" fill="none" stroke="#fff" stroke-width="1"/>
      <line id="Line_31" data-name="Line 31" x2="42" transform="translate(694.5 543.5)" fill="none" stroke="#fff" stroke-width="1"/>
      <line id="Line_56" data-name="Line 56" x2="69" transform="translate(264.5 1138.5)" fill="none" stroke="#fff" stroke-width="1"/>
      <line id="Line_14" data-name="Line 14" x2="42" transform="translate(268.5 515.5)" fill="none" stroke="#fff" stroke-width="2"/>
      <line id="Line_18" data-name="Line 18" x2="42" transform="translate(475.5 515.5)" fill="none" stroke="#fff" stroke-width="2"/>
      <line id="Line_11" data-name="Line 11" x2="42" transform="translate(268.5 653.5)" fill="none" stroke="#fff" stroke-width="1"/>
      <line id="Line_19" data-name="Line 19" x2="42" transform="translate(475.5 635.5)" fill="none" stroke="#fff" stroke-width="1"/>
      <line id="Line_12" data-name="Line 12" x2="42" transform="translate(361.5 653.5)" fill="none" stroke="#fff" stroke-width="1"/>
      <line id="Line_4" data-name="Line 4" x2="131" transform="translate(272.5 635.5)" fill="none" stroke="#fff" stroke-width="1"/>
      <line id="Line_5" data-name="Line 5" x2="135" transform="translate(268.5 533.5)" fill="none" stroke="#fff" stroke-width="1"/>
      <line id="Line_20" data-name="Line 20" x2="135" transform="translate(475.5 533.5)" fill="none" stroke="#fff" stroke-width="1"/>
      <line id="Line_6" data-name="Line 6" x2="135" transform="translate(268.5 543.5)" fill="none" stroke="#fff" stroke-width="1"/>
      <line id="Line_21" data-name="Line 21" x2="135" transform="translate(475.5 543.5)" fill="none" stroke="#fff" stroke-width="1"/>
      <line id="Line_7" data-name="Line 7" x2="135" transform="translate(268.5 553.5)" fill="none" stroke="#fff" stroke-width="1"/>
      <line id="Line_22" data-name="Line 22" x2="135" transform="translate(475.5 553.5)" fill="none" stroke="#fff" stroke-width="1"/>
      <line id="Line_8" data-name="Line 8" x2="135" transform="translate(268.5 563.5)" fill="none" stroke="#fff" stroke-width="1"/>
      <line id="Line_23" data-name="Line 23" x2="135" transform="translate(475.5 563.5)" fill="none" stroke="#fff" stroke-width="1"/>
      <line id="Line_9" data-name="Line 9" x2="135" transform="translate(268.5 573.5)" fill="none" stroke="#fff" stroke-width="1"/>
      <line id="Line_24" data-name="Line 24" x2="135" transform="translate(475.5 573.5)" fill="none" stroke="#fff" stroke-width="1"/>
      <line id="Line_62" data-name="Line 62" x2="135" transform="translate(853.5 1055.5)" fill="none" stroke="#fff" stroke-width="1"/>
      <line id="Line_82" data-name="Line 82" y2="28" transform="translate(921.5 1092.5)" fill="none" stroke="#fff" stroke-width="1"/>
      <line id="Line_10" data-name="Line 10" x2="135" transform="translate(268.5 583.5)" fill="none" stroke="#fff" stroke-width="1"/>
      <line id="Line_25" data-name="Line 25" x2="82" transform="translate(475.5 583.5)" fill="none" stroke="#fff" stroke-width="1"/>
    </g>
    <g id="Group_33" data-name="Group 33">
      <g id="Ellipse_2" data-name="Ellipse 2" transform="translate(965 433)" fill="none" stroke="#fff" stroke-width="4">
        <circle cx="53" cy="53" r="53" stroke="none"/>
        <circle cx="53" cy="53" r="51" fill="none"/>
      </g>
      <g id="Ellipse_3" data-name="Ellipse 3" transform="translate(1006 474)" fill="none" stroke="#fff" stroke-width="4">
        <circle cx="11.5" cy="11.5" r="11.5" stroke="none"/>
        <circle cx="11.5" cy="11.5" r="9.5" fill="none"/>
      </g>
      <g id="Ellipse_6" data-name="Ellipse 6" transform="translate(636 707)" fill="none" stroke="#fff" stroke-width="4">
        <circle cx="6.5" cy="6.5" r="6.5" stroke="none"/>
        <circle cx="6.5" cy="6.5" r="4.5" fill="none"/>
      </g>
      <g id="Ellipse_18" data-name="Ellipse 18" transform="translate(636 918)" fill="none" stroke="#fff" stroke-width="4">
        <circle cx="6.5" cy="6.5" r="6.5" stroke="none"/>
        <circle cx="6.5" cy="6.5" r="4.5" fill="none"/>
      </g>
      <g id="Ellipse_8" data-name="Ellipse 8" transform="translate(690 707)" fill="none" stroke="#fff" stroke-width="4">
        <circle cx="6.5" cy="6.5" r="6.5" stroke="none"/>
        <circle cx="6.5" cy="6.5" r="4.5" fill="none"/>
      </g>
      <g id="Ellipse_20" data-name="Ellipse 20" transform="translate(690 918)" fill="none" stroke="#fff" stroke-width="4">
        <circle cx="6.5" cy="6.5" r="6.5" stroke="none"/>
        <circle cx="6.5" cy="6.5" r="4.5" fill="none"/>
      </g>
      <g id="Ellipse_4" data-name="Ellipse 4" transform="translate(1001 469)" fill="none" stroke="#fff" stroke-width="1">
        <circle cx="16.5" cy="16.5" r="16.5" stroke="none"/>
        <circle cx="16.5" cy="16.5" r="16" fill="none"/>
      </g>
      <g id="Ellipse_5" data-name="Ellipse 5" transform="translate(626 697)" fill="none" stroke="#fff" stroke-width="1">
        <circle cx="16.5" cy="16.5" r="16.5" stroke="none"/>
        <circle cx="16.5" cy="16.5" r="16" fill="none"/>
      </g>
      <g id="Ellipse_17" data-name="Ellipse 17" transform="translate(626 908)" fill="none" stroke="#fff" stroke-width="1">
        <circle cx="16.5" cy="16.5" r="16.5" stroke="none"/>
        <circle cx="16.5" cy="16.5" r="16" fill="none"/>
      </g>
      <g id="Ellipse_7" data-name="Ellipse 7" transform="translate(680 697)" fill="none" stroke="#fff" stroke-width="1">
        <circle cx="16.5" cy="16.5" r="16.5" stroke="none"/>
        <circle cx="16.5" cy="16.5" r="16" fill="none"/>
      </g>
      <g id="Ellipse_15" data-name="Ellipse 15" transform="translate(626 758)" fill="none" stroke="#fff" stroke-width="5">
        <circle cx="16.5" cy="16.5" r="16.5" stroke="none"/>
        <circle cx="16.5" cy="16.5" r="14" fill="none"/>
      </g>
      <g id="Ellipse_19" data-name="Ellipse 19" transform="translate(680 908)" fill="none" stroke="#fff" stroke-width="1">
        <circle cx="16.5" cy="16.5" r="16.5" stroke="none"/>
        <circle cx="16.5" cy="16.5" r="16" fill="none"/>
      </g>
    </g>
    <path id="Path_224" data-name="Path 224" d="M6312.939,988.5V948.739l19.582-19.581h50.762" transform="translate(-5786 -50)" fill="none" stroke="#fff" stroke-width="1"/>
    <path id="logo.svg" d="M1368.5,161a75.5,75.5,0,1,0,75.5,75.5A75.5,75.5,0,0,0,1368.5,161Zm43.083,26.134-22.674,30.789a5.869,5.869,0,0,1-.753,1.324l-25.266,35.07H1389.1c2.168,0,2.736,1.037,2.736,2.734v7.731c0,1.7-.568,2.733-2.736,2.733h-36.7c-6.8,9.232-12.093,16.419-14.276,19.383a3.489,3.489,0,0,1-2.809,1.409c-3.585.012-11.4.031-11.974.025a1.359,1.359,0,0,1-1.113-2.128c5.769-7.827,25.585-34.731,43.163-58.594l6.462-8.928h-23.1c-2.166,0-2.733-1.037-2.733-2.733v-7.731c0-1.7.568-2.734,2.733-2.734h32.933c7.851-10.657,13.369-18.144,13.821-18.749a5.062,5.062,0,0,1,4.4-1.936s9.795.087,10.656.039A1.366,1.366,0,0,1,1411.584,187.134Z" transform="translate(-449.203 699.999)" fill="none" stroke="#fff" stroke-width="1"/>
  </g>
</svg>
