<svg xmlns="http://www.w3.org/2000/svg" width="351.013" height="351.01" viewBox="0 0 351.013 351.01">
  <path id="logo-dashed" d="M1468.009,161a175.005,175.005,0,1,0,175.005,175.005A175.008,175.008,0,0,0,1468.009,161Zm99.864,60.577c-1.447,1.962-24.1,32.73-52.557,71.369a13.606,13.606,0,0,1-1.747,3.069L1455,377.306h60.743c5.025,0,6.342,2.4,6.342,6.336v17.919c0,3.931-1.317,6.335-6.342,6.335h-85.079c-15.759,21.4-28.031,38.058-33.092,44.928a8.087,8.087,0,0,1-6.51,3.267c-8.31.028-26.419.072-27.754.058a3.149,3.149,0,0,1-2.579-4.931c13.373-18.142,59.306-80.506,100.05-135.818l14.979-20.7h-53.537c-5.02,0-6.336-2.4-6.336-6.336V270.451c0-3.932,1.316-6.336,6.336-6.336h76.338c18.2-24.7,30.988-42.057,32.036-43.459a11.733,11.733,0,0,1,10.207-4.487s22.7.2,24.7.089C1567.863,216.13,1569.792,218.833,1567.873,221.578Z" transform="translate(-1292.501 -160.501)" fill="none" stroke="#fff" stroke-width="1" stroke-dasharray="2"/>
</svg>
