<svg xmlns="http://www.w3.org/2000/svg" width="500.38" height="341.283" viewBox="0 0 500.38 341.283">
  <g id="logo-mtz" transform="translate(-540.667 -676.782)">
    <path id="Path_46" data-name="Path 46" d="M824.513,967.147s17.56,1.118,30.768-.849c8.839-1.317,26.4-6.628,30-6.832,5.44-.31,36.3,12.507,47.374,6.832,10.423-5.342,28.163-26.156,28.163-26.156s12.1-2.835,19.048-9.837,37.609-60.233,33.208-83.435c-2.69-14.193-30.16-35.554-30.16-35.554s-8.55-50.135-38.411-80.073c-64.97-65.144-140.453-55.26-177.924-36.69-47.663,23.625-82.277,74-82.277,74S641.316,801.82,602.39,873.5c-8.45,15.554-42.566,87.455-40.668,139.033,0,0,20.686,2.525,27.211-1.614,19.861-12.595,44.046-43.037,54.869-61.178a172.3,172.3,0,0,0,10.149-19.063s21.292,14.914,54.008,24.139c7.686,2.166,22.174,5.048,32.935,5.389l.32,19.218c11.792,3.625,31.539,0,31.539,0s1.052,24.852,3.335,30.63,42.156,4.216,44.482,2.814C824.557,1010.465,824.513,967.147,824.513,967.147Z" fill="none" stroke="#fff" stroke-linecap="round" stroke-linejoin="round" stroke-width="7.742"/>
    <path id="Path_47" data-name="Path 47" d="M982.842,926.512a335.963,335.963,0,0,1,15,59.285,263.578,263.578,0,0,1,2.641,27.945H957.635s-.748-12.9-2.995-27.193c-.655-4.173-21.991,5.3-22.92,1.175-4.467-19.814-3.224-20.868-3.224-20.868" fill="none" stroke="#fff" stroke-linejoin="round" stroke-width="7.742"/>
    <path id="Path_48" data-name="Path 48" d="M633.024,822.236c-38.862-56.36-126.633,7.914-69.924,64.986,10.97,11.038,5.362,24.072-5.654,24.072M823.032,927.08A429.782,429.782,0,0,1,824.4,970.3M761.018,830.557c-13.828,30.364-18.576,78.849-19.953,108.937-.531,11.609.152,39.843.152,39.843m-33.239-24.681c-9.889,25.2-29.7,53.088-37.531,56.429-4.39,1.872-24.82,1.472-24.82,1.472s8.682-16.419,13.206-30.883c9.492-30.331,8.478-43.334,8.478-43.334m336.037-50.052s24.356-2.987,30.5-16.819c5.28-11.893,2.7-12.4,2.7-12.4s-13.634,11.322-23.128,8.058m-96.463-39.014s-9.979-11.673-14.387-19.863-4.836-19.556-4.836-19.556-3.81-2.9-8.752,9.143,0,30.276,0,30.276" fill="none" stroke="#fff" stroke-linecap="round" stroke-linejoin="round" stroke-width="7.742"/>
    <path id="Path_49" data-name="Path 49" d="M924.047,886.248c-2.383-5.6-13.219-24.973-13.219-24.973a13.813,13.813,0,0,0-5.063,3.824c-1.9,2.543-3.387,6.778-2.3,14.369a23.784,23.784,0,0,1,4.547-.811c8.968,11.921,8.924.271,16.035,7.591" fill="#fff"/>
    <path id="Path_50" data-name="Path 50" d="M931.721,952.784c-11.594-4.908-18.9-8.838-19.835-9.365s-3.18,1.4-3.722,3.837.72,6.217,5.411,5.489c1.983-.307,4.38.127,9.391.746a30.824,30.824,0,0,0,8.754-.708" fill="#fff"/>
    <path id="Path_51" data-name="Path 51" d="M983.056,812.754s-23.621-14.439-50.931-20.927" fill="none" stroke="#fff" stroke-linecap="round" stroke-linejoin="round" stroke-width="7.742"/>
  </g>
</svg>
