<svg xmlns="http://www.w3.org/2000/svg" width="1025.328" height="562.269" viewBox="0 0 1025.328 562.269">
  <g id="market-explore-bg" transform="translate(1139.151 914.493) rotate(180)">
    <path id="Path_53" data-name="Path 53" d="M1319.217,466.93h873.935m-124.227-182.9L1607.62,745.78m347.11-147.073V360.488m108.854,284L1736.523,316.312m273.645,74.578-577.2,354.887" transform="translate(-1054.001 68.425)" fill="none" stroke="#fff" stroke-miterlimit="10" stroke-width="0.645" stroke-dasharray="3"/>
    <path id="Path_52" data-name="Path 52" d="M1624.809,237.8c0,77.425-62.7,140.19-140.043,140.19s-140.036-62.765-140.036-140.19,62.7-140.184,140.036-140.184A140.114,140.114,0,0,1,1624.809,237.8Z" transform="translate(-1065.4 536.179)" fill="none" stroke="#d9000d" stroke-miterlimit="10" stroke-width="0.645"/>
    <path id="Path_225" data-name="Path 225" d="M1789.427,320.2c0,122.932-99.55,222.588-222.354,222.588S1344.729,443.127,1344.729,320.2s99.548-222.578,222.344-222.578S1789.427,197.272,1789.427,320.2Z" transform="translate(-894.018 371.387)" fill="none" stroke="#d9000d" stroke-miterlimit="10" stroke-width="0.645"/>
    <circle id="Ellipse_21" data-name="Ellipse 21" cx="9" cy="9" r="9" transform="translate(793.12 693.175) rotate(-180)" fill="#0970a1"/>
    <circle id="Ellipse_38" data-name="Ellipse 38" cx="9" cy="9" r="9" transform="translate(835.626 499.02) rotate(-158)" fill="#0970a1"/>
    <g id="Ellipse_36" data-name="Ellipse 36" transform="translate(624.229 564.025) rotate(-158)" fill="none" stroke="#006fa3" stroke-width="2">
      <circle cx="9" cy="9" r="9" stroke="none"/>
      <circle cx="9" cy="9" r="8" fill="none"/>
    </g>
    <g id="Ellipse_27" data-name="Ellipse 27" transform="translate(893.12 560.175) rotate(-180)" fill="none" stroke="#fff" stroke-width="1">
      <circle cx="9" cy="9" r="9" stroke="none"/>
      <circle cx="9" cy="9" r="8.5" fill="none"/>
    </g>
    <circle id="Ellipse_35" data-name="Ellipse 35" cx="9" cy="9" r="9" transform="translate(950.687 510.524) rotate(-158)" fill="#0970a1"/>
    <circle id="Ellipse_25" data-name="Ellipse 25" cx="9" cy="9" r="9" transform="translate(631.12 627.175) rotate(-180)" fill="#0970a1"/>
    <circle id="Ellipse_33" data-name="Ellipse 33" cx="9" cy="9" r="9" transform="translate(563.12 655.175) rotate(-180)" fill="#fff"/>
    <circle id="Ellipse_30" data-name="Ellipse 30" cx="9" cy="9" r="9" transform="translate(696.12 606.175) rotate(-180)" fill="#0970a1"/>
    <circle id="Ellipse_31" data-name="Ellipse 31" cx="9" cy="9" r="9" transform="translate(613.12 711.175) rotate(-180)" fill="#0970a1"/>
    <g id="Ellipse_22" data-name="Ellipse 22" transform="translate(801.12 624.175) rotate(-180)" fill="none" stroke="#dc0000" stroke-width="2">
      <circle cx="9" cy="9" r="9" stroke="none"/>
      <circle cx="9" cy="9" r="8" fill="none"/>
    </g>
    <g id="Ellipse_39" data-name="Ellipse 39" transform="translate(671.498 678.53) rotate(-158)" fill="none" stroke="#fff" stroke-width="2">
      <circle cx="9" cy="9" r="9" stroke="none"/>
      <circle cx="9" cy="9" r="8" fill="none"/>
    </g>
    <g id="Ellipse_29" data-name="Ellipse 29" transform="translate(720.12 738.175) rotate(-180)" fill="none" stroke="#df0000" stroke-width="2">
      <circle cx="9" cy="9" r="9" stroke="none"/>
      <circle cx="9" cy="9" r="8" fill="none"/>
    </g>
    <g id="Ellipse_40" data-name="Ellipse 40" transform="translate(768.5 527.258) rotate(-158)" fill="none" stroke="#df0000" stroke-width="2">
      <circle cx="9" cy="9" r="9" stroke="none"/>
      <circle cx="9" cy="9" r="8" fill="none"/>
    </g>
    <circle id="Ellipse_28" data-name="Ellipse 28" cx="9" cy="9" r="9" transform="translate(527.12 574.175) rotate(-180)" fill="#d9000d"/>
    <circle id="Ellipse_34" data-name="Ellipse 34" cx="9" cy="9" r="9" transform="translate(343.12 738.175) rotate(-180)" fill="#d9000d"/>
    <g id="Ellipse_26" data-name="Ellipse 26" transform="translate(740.12 571.175) rotate(-180)" fill="none" stroke="#fff" stroke-width="2">
      <circle cx="9" cy="9" r="9" stroke="none"/>
      <circle cx="9" cy="9" r="8" fill="none"/>
    </g>
    <circle id="Ellipse_24" data-name="Ellipse 24" cx="9" cy="9" r="9" transform="translate(504.12 718.175) rotate(-180)" fill="#d9000d"/>
    <path id="Path_242" data-name="Path 242" d="M4342.278,590.717h787" transform="translate(5394.452 1170.413) rotate(-180)" fill="none" stroke="#0092d5" stroke-width="0.65"/>
    <path id="logo.svg" d="M1368.5,161a75.5,75.5,0,1,0,75.5,75.5A75.5,75.5,0,0,0,1368.5,161Zm43.083,26.134-22.674,30.789a5.869,5.869,0,0,1-.753,1.324l-25.266,35.07H1389.1c2.168,0,2.736,1.037,2.736,2.734v7.731c0,1.7-.568,2.733-2.736,2.733h-36.7c-6.8,9.232-12.093,16.419-14.276,19.383a3.489,3.489,0,0,1-2.809,1.409c-3.585.012-11.4.031-11.974.025a1.359,1.359,0,0,1-1.113-2.128c5.769-7.827,25.585-34.731,43.163-58.594l6.462-8.928h-23.1c-2.166,0-2.733-1.037-2.733-2.733v-7.731c0-1.7.568-2.734,2.733-2.734h32.933c7.851-10.657,13.369-18.144,13.821-18.749a5.062,5.062,0,0,1,4.4-1.936s9.795.087,10.656.039A1.366,1.366,0,0,1,1411.584,187.134Z" transform="translate(1558.323 770.176) rotate(-180)" fill="none" stroke="#fff" stroke-width="1" stroke-dasharray="2"/>
    <path id="Path_92" data-name="Path 92" d="M4342.278,590.717h762.261" transform="translate(5393.452 981.413) rotate(-180)" fill="none" stroke="#0092d5" stroke-width="0.65"/>
  </g>
</svg>
