<svg xmlns="http://www.w3.org/2000/svg" width="1558.018" height="1094.139" viewBox="0 0 1558.018 1094.139">
  <g id="naming-bg" transform="translate(224.323 190.596)">
    <path id="Path_53" data-name="Path 53" d="M1990.129,206.252H1681.94M1319.217,466.93h781.459m-31.751-182.9L1607.62,745.78M1476.94,578.852V371.442m586.644,273.044L1607.62,188.08m382.508,0-557.159,557.7" transform="translate(-1144.001 17.425)" fill="none" stroke="#0092d5" stroke-miterlimit="10" stroke-width="0.645"/>
    <path id="Path_89" data-name="Path 89" d="M4342.279,590.717h550.167" transform="translate(-4167.063 -8.238)" fill="none" stroke="#0092d5" stroke-width="0.65"/>
    <path id="Path_90" data-name="Path 90" d="M4342.279,590.717h550.167" transform="translate(-4167.063 -88.238)" fill="none" stroke="#0092d5" stroke-width="0.65"/>
    <path id="Path_91" data-name="Path 91" d="M4342.279,590.717h550.167" transform="translate(-4167.063 -185.238)" fill="none" stroke="#0092d5" stroke-width="0.65"/>
    <path id="Path_92" data-name="Path 92" d="M4342.278,590.717h390.729" transform="translate(-3776.332 -163.238)" fill="none" stroke="#0092d5" stroke-width="0.65"/>
    <path id="Path_43" data-name="Path 43" d="M894.791,983.263c0,188.072-152.3,340.531-340.167,340.531S214.47,1171.335,214.47,983.263s152.3-340.517,340.153-340.517S894.791,795.2,894.791,983.263Zm38.259,0c0,188.072-152.3,340.531-340.167,340.531s-340.153-152.46-340.153-340.531,152.3-340.517,340.153-340.517S933.049,795.2,933.049,983.263ZM1096.2,570.818c0,188.072-152.3,340.534-340.167,340.534S415.879,758.89,415.879,570.818,568.175,230.3,756.032,230.3,1096.2,382.761,1096.2,570.818Zm276.383,330.943c0,188.072-152.3,340.532-340.168,340.532s-340.153-152.46-340.153-340.532,152.3-340.517,340.153-340.517S1372.583,713.7,1372.583,901.761Zm-603.262,0c0,188.072-152.3,340.532-340.167,340.532S89,1089.833,89,901.761,241.3,561.244,429.154,561.244,769.321,713.7,769.321,901.761Zm432.41,81.5c0,188.072-152.3,340.531-340.167,340.531s-340.153-152.46-340.153-340.531,152.3-340.517,340.153-340.517S1201.732,795.2,1201.732,983.263Z" transform="translate(-313.001 -420.575)" fill="none" stroke="#d9000d" stroke-miterlimit="10" stroke-width="0.645"/>
    <path id="Path_52" data-name="Path 52" d="M1807.442,329.212c0,127.912-103.583,231.6-231.362,231.6s-231.351-103.693-231.351-231.6S1448.31,97.617,1576.08,97.617,1807.442,201.309,1807.442,329.212Z" transform="translate(-474.069 -36.575)" fill="none" stroke="#d9000d" stroke-miterlimit="10" stroke-width="0.645"/>
  </g>
</svg>
