<svg xmlns="http://www.w3.org/2000/svg" width="937" height="263" viewBox="0 0 937 263">
  <g id="seo-img" transform="translate(-250 -551)">
    <g id="Rectangle_3" data-name="Rectangle 3" transform="translate(250 551)" fill="none" stroke="#fff" stroke-width="1">
      <rect width="91" height="53" stroke="none"/>
      <rect x="0.5" y="0.5" width="90" height="52" fill="none"/>
    </g>
    <g id="Rectangle_42" data-name="Rectangle 42" transform="translate(673 551)" fill="none" stroke="#fff" stroke-width="4">
      <rect width="91" height="53" stroke="none"/>
      <rect x="2" y="2" width="87" height="49" fill="none"/>
    </g>
    <g id="Rectangle_38" data-name="Rectangle 38" transform="translate(391 551)" fill="none" stroke="#fff" stroke-width="4">
      <rect width="91" height="53" stroke="none"/>
      <rect x="2" y="2" width="87" height="49" fill="none"/>
    </g>
    <g id="Rectangle_41" data-name="Rectangle 41" transform="translate(532 621)" fill="none" stroke="#fff" stroke-width="1" stroke-dasharray="2">
      <rect width="91" height="53" stroke="none"/>
      <rect x="0.5" y="0.5" width="90" height="52" fill="none"/>
    </g>
    <g id="Rectangle_35" data-name="Rectangle 35" transform="translate(250 621)" fill="none" stroke="#fff" stroke-width="4">
      <rect width="91" height="53" stroke="none"/>
      <rect x="2" y="2" width="87" height="49" fill="none"/>
    </g>
    <g id="Rectangle_43" data-name="Rectangle 43" transform="translate(673 621)" fill="none" stroke="#ffea34" stroke-width="4">
      <rect width="91" height="53" stroke="none"/>
      <rect x="2" y="2" width="87" height="49" fill="none"/>
    </g>
    <g id="Rectangle_46" data-name="Rectangle 46" transform="translate(814 691)" fill="none" stroke="#fff" stroke-width="4">
      <rect width="91" height="53" stroke="none"/>
      <rect x="2" y="2" width="87" height="49" fill="none"/>
    </g>
    <g id="Rectangle_47" data-name="Rectangle 47" transform="translate(955 621)" fill="none" stroke="#fff" stroke-width="4">
      <rect width="91" height="53" stroke="none"/>
      <rect x="2" y="2" width="87" height="49" fill="none"/>
    </g>
    <g id="Rectangle_49" data-name="Rectangle 49" transform="translate(1096 621)" fill="none" stroke="#fff" stroke-width="4">
      <rect width="91" height="53" stroke="none"/>
      <rect x="2" y="2" width="87" height="49" fill="none"/>
    </g>
    <g id="Rectangle_39" data-name="Rectangle 39" transform="translate(391 621)" fill="none" stroke="#fff" stroke-width="4">
      <rect width="91" height="53" stroke="none"/>
      <rect x="2" y="2" width="87" height="49" fill="none"/>
    </g>
    <g id="Rectangle_40" data-name="Rectangle 40" transform="translate(532 691)" fill="none" stroke="#fff" stroke-width="4">
      <rect width="91" height="53" stroke="none"/>
      <rect x="2" y="2" width="87" height="49" fill="none"/>
    </g>
    <g id="Rectangle_36" data-name="Rectangle 36" transform="translate(250 691)" fill="none" stroke="#d90915" stroke-width="4">
      <rect width="91" height="53" stroke="none"/>
      <rect x="2" y="2" width="87" height="49" fill="none"/>
    </g>
    <g id="Rectangle_44" data-name="Rectangle 44" transform="translate(673 691)" fill="none" stroke="#fff" stroke-width="1">
      <rect width="91" height="53" stroke="none"/>
      <rect x="0.5" y="0.5" width="90" height="52" fill="none"/>
    </g>
    <g id="Rectangle_45" data-name="Rectangle 45" transform="translate(814 761)" fill="none" stroke="#fff" stroke-width="4">
      <rect width="91" height="53" stroke="none"/>
      <rect x="2" y="2" width="87" height="49" fill="none"/>
    </g>
    <g id="Rectangle_48" data-name="Rectangle 48" transform="translate(955 691)" fill="none" stroke="#0f70a1" stroke-width="4">
      <rect width="91" height="53" stroke="none"/>
      <rect x="2" y="2" width="87" height="49" fill="none"/>
    </g>
    <g id="Rectangle_37" data-name="Rectangle 37" transform="translate(250 761)" fill="none" stroke="#fff" stroke-width="4">
      <rect width="91" height="53" stroke="none"/>
      <rect x="2" y="2" width="87" height="49" fill="none"/>
    </g>
    <line id="Line_28" data-name="Line 28" x2="42" transform="translate(261.5 563.5)" fill="none" stroke="#fff" stroke-width="1"/>
    <line id="Line_130" data-name="Line 130" x2="42" transform="translate(684.5 563.5)" fill="none" stroke="#fff" stroke-width="1"/>
    <line id="Line_117" data-name="Line 117" x2="42" transform="translate(402.5 563.5)" fill="none" stroke="#fff" stroke-width="1"/>
    <line id="Line_108" data-name="Line 108" x2="42" transform="translate(261.5 633.5)" fill="none" stroke="#fff" stroke-width="1"/>
    <line id="Line_131" data-name="Line 131" x2="42" transform="translate(684.5 633.5)" fill="none" stroke="#fff" stroke-width="1"/>
    <line id="Line_144" data-name="Line 144" x2="42" transform="translate(825.5 703.5)" fill="none" stroke="#fff" stroke-width="1"/>
    <line id="Line_145" data-name="Line 145" x2="42" transform="translate(966.5 633.5)" fill="none" stroke="#fff" stroke-width="1"/>
    <line id="Line_151" data-name="Line 151" x2="42" transform="translate(1107.5 633.5)" fill="none" stroke="#fff" stroke-width="1"/>
    <line id="Line_118" data-name="Line 118" x2="42" transform="translate(402.5 633.5)" fill="none" stroke="#fff" stroke-width="1"/>
    <line id="Line_127" data-name="Line 127" x2="42" transform="translate(543.5 703.5)" fill="none" stroke="#fff" stroke-width="1"/>
    <line id="Line_111" data-name="Line 111" x2="42" transform="translate(261.5 703.5)" fill="none" stroke="#fff" stroke-width="1"/>
    <line id="Line_136" data-name="Line 136" x2="42" transform="translate(684.5 703.5)" fill="none" stroke="#fff" stroke-width="1"/>
    <line id="Line_141" data-name="Line 141" x2="42" transform="translate(825.5 773.5)" fill="none" stroke="#fff" stroke-width="1"/>
    <line id="Line_148" data-name="Line 148" x2="42" transform="translate(966.5 703.5)" fill="none" stroke="#fff" stroke-width="1"/>
    <line id="Line_114" data-name="Line 114" x2="42" transform="translate(261.5 773.5)" fill="none" stroke="#fff" stroke-width="1"/>
    <line id="Line_27" data-name="Line 27" x2="42" transform="translate(288.5 579.5)" fill="none" stroke="#fff" stroke-width="1"/>
    <line id="Line_132" data-name="Line 132" x2="42" transform="translate(711.5 579.5)" fill="none" stroke="#fff" stroke-width="1"/>
    <line id="Line_120" data-name="Line 120" x2="42" transform="translate(429.5 579.5)" fill="none" stroke="#fff" stroke-width="1"/>
    <line id="Line_129" data-name="Line 129" x2="42" transform="translate(570.5 649.5)" fill="none" stroke="#fff" stroke-width="1"/>
    <line id="Line_109" data-name="Line 109" x2="42" transform="translate(288.5 649.5)" fill="none" stroke="#fff" stroke-width="1"/>
    <line id="Line_133" data-name="Line 133" x2="42" transform="translate(711.5 649.5)" fill="none" stroke="#fff" stroke-width="1"/>
    <line id="Line_143" data-name="Line 143" x2="42" transform="translate(852.5 719.5)" fill="none" stroke="#fff" stroke-width="1"/>
    <line id="Line_146" data-name="Line 146" x2="42" transform="translate(993.5 649.5)" fill="none" stroke="#fff" stroke-width="1"/>
    <line id="Line_152" data-name="Line 152" x2="42" transform="translate(1134.5 649.5)" fill="none" stroke="#fff" stroke-width="1"/>
    <line id="Line_121" data-name="Line 121" x2="42" transform="translate(429.5 649.5)" fill="none" stroke="#fff" stroke-width="1"/>
    <line id="Line_126" data-name="Line 126" x2="42" transform="translate(570.5 719.5)" fill="none" stroke="#fff" stroke-width="1"/>
    <line id="Line_112" data-name="Line 112" x2="42" transform="translate(288.5 719.5)" fill="none" stroke="#fff" stroke-width="1"/>
    <line id="Line_137" data-name="Line 137" x2="42" transform="translate(711.5 719.5)" fill="none" stroke="#fff" stroke-width="1"/>
    <line id="Line_139" data-name="Line 139" x2="42" transform="translate(852.5 789.5)" fill="none" stroke="#fff" stroke-width="1"/>
    <line id="Line_149" data-name="Line 149" x2="42" transform="translate(993.5 719.5)" fill="none" stroke="#fff" stroke-width="1"/>
    <line id="Line_115" data-name="Line 115" x2="42" transform="translate(288.5 789.5)" fill="none" stroke="#fff" stroke-width="1"/>
    <line id="Line_26" data-name="Line 26" x2="42" transform="translate(288.5 587.5)" fill="none" stroke="#fff" stroke-width="1"/>
    <line id="Line_134" data-name="Line 134" x2="42" transform="translate(711.5 587.5)" fill="none" stroke="#fff" stroke-width="1"/>
    <line id="Line_123" data-name="Line 123" x2="42" transform="translate(429.5 587.5)" fill="none" stroke="#fff" stroke-width="1"/>
    <line id="Line_128" data-name="Line 128" x2="42" transform="translate(570.5 657.5)" fill="none" stroke="#fff" stroke-width="1"/>
    <line id="Line_110" data-name="Line 110" x2="42" transform="translate(288.5 657.5)" fill="none" stroke="#fff" stroke-width="1"/>
    <line id="Line_135" data-name="Line 135" x2="42" transform="translate(711.5 657.5)" fill="none" stroke="#fff" stroke-width="1"/>
    <line id="Line_142" data-name="Line 142" x2="42" transform="translate(852.5 727.5)" fill="none" stroke="#fff" stroke-width="1"/>
    <line id="Line_147" data-name="Line 147" x2="42" transform="translate(993.5 657.5)" fill="none" stroke="#fff" stroke-width="1"/>
    <line id="Line_153" data-name="Line 153" x2="42" transform="translate(1134.5 657.5)" fill="none" stroke="#fff" stroke-width="1"/>
    <line id="Line_124" data-name="Line 124" x2="42" transform="translate(429.5 657.5)" fill="none" stroke="#fff" stroke-width="1"/>
    <line id="Line_125" data-name="Line 125" x2="42" transform="translate(570.5 727.5)" fill="none" stroke="#fff" stroke-width="1"/>
    <line id="Line_113" data-name="Line 113" x2="42" transform="translate(288.5 727.5)" fill="none" stroke="#fff" stroke-width="1"/>
    <line id="Line_138" data-name="Line 138" x2="42" transform="translate(711.5 727.5)" fill="none" stroke="#fff" stroke-width="1"/>
    <line id="Line_140" data-name="Line 140" x2="42" transform="translate(852.5 797.5)" fill="none" stroke="#fff" stroke-width="1"/>
    <line id="Line_150" data-name="Line 150" x2="42" transform="translate(993.5 727.5)" fill="none" stroke="#fff" stroke-width="1"/>
    <line id="Line_116" data-name="Line 116" x2="42" transform="translate(288.5 797.5)" fill="none" stroke="#fff" stroke-width="1"/>
    <path id="Path_268" data-name="Path 268" d="M1579.677,1425.294c102.516-.221,84.336-63.172,191.313-69.115" transform="translate(-1238 -638)" fill="none" stroke="#d90915" stroke-width="1" stroke-dasharray="2" opacity="0.998"/>
    <path id="Path_276" data-name="Path 276" d="M1579.677,1425.294c47.818,2.182,26.6-70.4,189.05-69.867" transform="translate(-1097 -779)" fill="none" stroke="#0f70a1" stroke-width="1" stroke-dasharray="2" opacity="0.998"/>
    <path id="Path_275" data-name="Path 275" d="M1579.677,1425.294c226.484,1.479,137.617-72.667,191.313-69.115" transform="translate(-1239 -709)" fill="none" stroke="#fff" stroke-width="1" stroke-dasharray="2" opacity="0.998"/>
    <path id="Path_273" data-name="Path 273" d="M1579.677,1425.294c239.85,3.792,235.253-86.875,235.37-114.086" transform="translate(-674 -637)" fill="none" stroke="#ffea34" stroke-width="1" stroke-dasharray="2" opacity="0.998"/>
    <path id="Path_271" data-name="Path 271" d="M1579.677,1425.294c174.839,3.443,140.936,64.12,190.084,66.646" transform="translate(-1098 -846)" fill="none" stroke="#ffea34" stroke-width="1" stroke-dasharray="2" opacity="0.998"/>
    <path id="Path_272" data-name="Path 272" d="M1579.677,1425.294c174.839,3.443,134.615,141.828,190.542,139.922" transform="translate(-816 -846)" fill="none" stroke="#0f70a1" stroke-width="1" stroke-dasharray="2" opacity="0.998"/>
    <path id="Path_274" data-name="Path 274" d="M1579.677,1425.294c41.933-.836-7.562,73.365,48.365,71.458" transform="translate(-816 -708)" fill="none" stroke="#fff" stroke-width="1" stroke-dasharray="2" opacity="0.998"/>
    <path id="Path_277" data-name="Path 277" d="M1579.677,1493.969c41.933.8-7.562-70.478,48.365-68.647" transform="translate(-673 -777.688)" fill="none" stroke="#d90915" stroke-width="1" stroke-dasharray="2" opacity="0.998"/>
    <line id="Line_154" data-name="Line 154" x2="50" transform="translate(341.5 577.5)" fill="none" stroke="#fff" stroke-width="1" stroke-dasharray="2"/>
    <line id="Line_155" data-name="Line 155" x2="50" transform="translate(341.5 649.5)" fill="none" stroke="#0f70a1" stroke-width="1" stroke-dasharray="2"/>
    <line id="Line_156" data-name="Line 156" x2="50" transform="translate(622.5 717.5)" fill="none" stroke="#d90915" stroke-width="1" stroke-dasharray="2"/>
    <g id="Ellipse_61" data-name="Ellipse 61" transform="translate(584.825 611.741) rotate(-173)" fill="none" stroke="#0f70a1" stroke-width="1">
      <circle cx="6" cy="6" r="6" stroke="none"/>
      <circle cx="6" cy="6" r="5.5" fill="none"/>
    </g>
    <g id="Ellipse_62" data-name="Ellipse 62" transform="translate(726.825 774.741) rotate(-173)" fill="none" stroke="#0f70a1" stroke-width="1">
      <circle cx="6" cy="6" r="6" stroke="none"/>
      <circle cx="6" cy="6" r="5.5" fill="none"/>
    </g>
    <g id="Ellipse_64" data-name="Ellipse 64" transform="translate(441.825 697.741) rotate(-173)" fill="none" stroke="#0f70a1" stroke-width="1">
      <circle cx="6" cy="6" r="6" stroke="none"/>
      <circle cx="6" cy="6" r="5.5" fill="none"/>
    </g>
    <g id="Ellipse_63" data-name="Ellipse 63" transform="translate(863.825 682.741) rotate(-173)" fill="none" stroke="#0f70a1" stroke-width="1">
      <circle cx="6" cy="6" r="6" stroke="none"/>
      <circle cx="6" cy="6" r="5.5" fill="none"/>
    </g>
    <g id="Ellipse_65" data-name="Ellipse 65" transform="translate(1006.825 774.741) rotate(-173)" fill="none" stroke="#0f70a1" stroke-width="1">
      <circle cx="6" cy="6" r="6" stroke="none"/>
      <circle cx="6" cy="6" r="5.5" fill="none"/>
    </g>
    <g id="Ellipse_66" data-name="Ellipse 66" transform="translate(1005.825 604.741) rotate(-173)" fill="none" stroke="#d90915" stroke-width="1">
      <circle cx="6" cy="6" r="6" stroke="none"/>
      <circle cx="6" cy="6" r="5.5" fill="none"/>
    </g>
  </g>
</svg>
