<svg xmlns="http://www.w3.org/2000/svg" width="886.327" height="434.796" viewBox="0 0 886.327 434.796">
  <g id="tech-sup-bg" transform="translate(-229.232 -329.557)">
    <path id="logo.svg" d="M1382.831,161a89.83,89.83,0,1,0,89.83,89.83A89.831,89.831,0,0,0,1382.831,161Zm51.26,31.094-26.977,36.633a6.986,6.986,0,0,1-.9,1.576l-30.061,41.726h31.179c2.58,0,3.255,1.234,3.255,3.252v9.2c0,2.018-.676,3.252-3.255,3.252h-43.671c-8.089,10.984-14.388,19.535-16.986,23.062a4.152,4.152,0,0,1-3.342,1.677c-4.266.014-13.561.037-14.246.03a1.616,1.616,0,0,1-1.324-2.531c6.864-9.312,30.441-41.323,51.355-69.715l7.689-10.623h-27.48c-2.577,0-3.252-1.234-3.252-3.252v-9.2c0-2.018.675-3.252,3.252-3.252h39.184c9.341-12.679,15.906-21.588,16.444-22.307a6.023,6.023,0,0,1,5.239-2.3s11.654.1,12.679.046A1.625,1.625,0,0,1,1434.091,192.095Z" transform="translate(-714.357 340.331)" fill="none" stroke="#fff" stroke-width="1" stroke-dasharray="2"/>
    <ellipse id="Ellipse_38" data-name="Ellipse 38" cx="12.569" cy="12.569" rx="12.569" ry="12.569" transform="translate(917.344 533.702) rotate(-158)" fill="#0970a1"/>
    <ellipse id="Ellipse_34" data-name="Ellipse 34" cx="12.569" cy="12.569" rx="12.569" ry="12.569" transform="translate(254.691 501.332) rotate(180)" fill="#d9000d"/>
    <ellipse id="Ellipse_70" data-name="Ellipse 70" cx="12.569" cy="12.569" rx="12.569" ry="12.569" transform="translate(1045.116 501.332) rotate(180)" fill="#0f70a1"/>
    <ellipse id="Ellipse_73" data-name="Ellipse 73" cx="12.569" cy="12.569" rx="12.569" ry="12.569" transform="translate(423.669 501.332) rotate(180)" fill="#d9000d"/>
    <ellipse id="Ellipse_72" data-name="Ellipse 72" cx="12.569" cy="12.569" rx="12.569" ry="12.569" transform="translate(923.62 604.674) rotate(180)" fill="#d9000d"/>
    <g id="Ellipse_69" data-name="Ellipse 69" transform="translate(515.839 593.502) rotate(180)" fill="none" stroke="#d90915" stroke-width="1" stroke-dasharray="2">
      <ellipse cx="104.738" cy="104.738" rx="104.738" ry="104.738" stroke="none"/>
      <ellipse cx="104.738" cy="104.738" rx="104.238" ry="104.238" fill="none"/>
    </g>
    <g id="Ellipse_68" data-name="Ellipse 68" transform="translate(838.979 644.763) rotate(180)" fill="none" stroke="#0f70a1" stroke-width="1" stroke-dasharray="2">
      <ellipse cx="104.738" cy="104.738" rx="104.738" ry="104.738" stroke="none"/>
      <ellipse cx="104.738" cy="104.738" rx="104.238" ry="104.238" fill="none"/>
    </g>
    <line id="Line_189" data-name="Line 189" x1="831.637" transform="translate(245.863 488.294)" fill="none" stroke="#d90915" stroke-width="1" stroke-dasharray="2"/>
    <g id="Group_19" data-name="Group 19" transform="translate(229.555 329.88)">
      <path id="Path_52" data-name="Path 52" d="M1624.156,237.475c0,77.244-62.552,139.863-139.717,139.863s-139.71-62.619-139.71-139.863,62.551-139.857,139.71-139.857A139.788,139.788,0,0,1,1624.156,237.475Z" transform="translate(-1344.729 56.813)" fill="none" stroke="#d9000d" stroke-miterlimit="10" stroke-width="0.645"/>
      <path id="Path_225" data-name="Path 225" d="M1762.7,306.817c0,115.542-93.566,209.208-208.989,209.208s-208.978-93.666-208.978-209.208,93.565-209.2,208.978-209.2S1762.7,191.282,1762.7,306.817Z" transform="translate(-1155.037 -97.617)" fill="none" stroke="#d9000d" stroke-miterlimit="10" stroke-width="0.645"/>
    </g>
    <path id="Path_279" data-name="Path 279" d="M0,104.358,499.737,0" transform="translate(911.079 487.74) rotate(180)" fill="none" stroke="#fff" stroke-width="1" stroke-dasharray="2"/>
    <path id="Path_282" data-name="Path 282" d="M297.837,249.107,494.052,4.812" transform="translate(906.079 670.74) rotate(180)" fill="none" stroke="#0f70a1" stroke-width="1" stroke-dasharray="2"/>
    <path id="Path_280" data-name="Path 280" d="M121.4,104.675,0,0" transform="translate(1032.478 488.056) rotate(180)" fill="none" stroke="#d90915" stroke-width="1" stroke-dasharray="2"/>
    <ellipse id="Ellipse_74" data-name="Ellipse 74" cx="20.948" cy="20.948" rx="20.948" ry="20.948" transform="matrix(0.966, -0.259, 0.259, 0.966, 347.837, 533.683)" fill="#0970a1"/>
    <g id="Ellipse_75" data-name="Ellipse 75" transform="translate(1106.142 452.016) rotate(-158)" fill="none" stroke="#fff" stroke-width="2">
      <ellipse cx="12.569" cy="12.569" rx="12.569" ry="12.569" stroke="none"/>
      <ellipse cx="12.569" cy="12.569" rx="11.569" ry="11.569" fill="none"/>
    </g>
    <g id="Ellipse_76" data-name="Ellipse 76" transform="translate(606.176 406.189) rotate(7)" fill="none" stroke="#fff" stroke-width="2">
      <ellipse cx="8.379" cy="8.379" rx="8.379" ry="8.379" stroke="none"/>
      <ellipse cx="8.379" cy="8.379" rx="7.379" ry="7.379" fill="none"/>
    </g>
    <g id="Ellipse_78" data-name="Ellipse 78" transform="translate(399.176 661.189) rotate(7)" fill="none" stroke="#fff" stroke-width="2">
      <ellipse cx="8.379" cy="8.379" rx="8.379" ry="8.379" stroke="none"/>
      <ellipse cx="8.379" cy="8.379" rx="7.379" ry="7.379" fill="none"/>
    </g>
    <ellipse id="Ellipse_71" data-name="Ellipse 71" cx="12.569" cy="12.569" rx="12.569" ry="12.569" transform="translate(923.62 396.593) rotate(180)" fill="#d9000d"/>
  </g>
</svg>
