<svg xmlns="http://www.w3.org/2000/svg" width="44.998" height="44.998" viewBox="0 0 44.998 44.998">
  <path id="yellow-logo" d="M1315.5,161a22.5,22.5,0,1,0,22.5,22.5A22.5,22.5,0,0,0,1315.5,161Zm12.839,7.788-6.757,9.175a1.746,1.746,0,0,1-.225.395l-7.529,10.451h7.809c.646,0,.815.309.815.815v2.3c0,.505-.169.814-.815.814H1310.7l-4.254,5.776a1.04,1.04,0,0,1-.837.42c-1.068,0-3.4.009-3.568.008a.4.4,0,0,1-.332-.634c1.719-2.332,7.624-10.35,12.863-17.461l1.926-2.661h-6.883c-.645,0-.815-.309-.815-.814v-2.3c0-.505.169-.815.815-.815h9.814c2.34-3.176,3.984-5.407,4.119-5.587a1.508,1.508,0,0,1,1.312-.577s2.919.026,3.176.011A.407.407,0,0,1,1328.338,168.789Z" transform="translate(-1293.001 -161.001)" fill="#ffea00"/>
</svg>
